<mxfile host="app.diagrams.net" agent="Mozilla/5.0 (Windows NT 10.0; Win64; x64) AppleWebKit/537.36 (KHTML, like Gecko) Chrome/137.0.0.0 Safari/537.36" version="27.1.6">
  <diagram name="PÃ¡gina-1" id="GSojYuU_AjDAhq18tY-5">
    <mxGraphModel dx="1157" dy="626" grid="1" gridSize="10" guides="1" tooltips="1" connect="1" arrows="1" fold="1" page="1" pageScale="1" pageWidth="1169" pageHeight="827" math="0" shadow="0">
      <root>
        <mxCell id="0" />
        <mxCell id="1" parent="0" />
        <mxCell id="U3WG0F0ZRMjqYamJ1iFd-1" value="" style="rounded=0;whiteSpace=wrap;html=1;fillColor=none;dashed=1;" vertex="1" parent="1">
          <mxGeometry x="240" y="240" width="160" height="480" as="geometry" />
        </mxCell>
        <mxCell id="U3WG0F0ZRMjqYamJ1iFd-2" value="" style="rounded=0;whiteSpace=wrap;html=1;fillColor=none;dashed=1;" vertex="1" parent="1">
          <mxGeometry x="440" y="319" width="160" height="360" as="geometry" />
        </mxCell>
        <mxCell id="U3WG0F0ZRMjqYamJ1iFd-3" value="" style="rounded=0;whiteSpace=wrap;html=1;fillColor=none;dashed=1;" vertex="1" parent="1">
          <mxGeometry x="640" y="319" width="160" height="360" as="geometry" />
        </mxCell>
        <mxCell id="U3WG0F0ZRMjqYamJ1iFd-4" value="" style="rounded=0;whiteSpace=wrap;html=1;fillColor=none;dashed=1;" vertex="1" parent="1">
          <mxGeometry x="840" y="319" width="160" height="360" as="geometry" />
        </mxCell>
        <mxCell id="U3WG0F0ZRMjqYamJ1iFd-5" value="&lt;font style=&quot;font-size: 10px;&quot;&gt;&lt;b&gt;Sources&lt;/b&gt;&lt;/font&gt;" style="text;html=1;align=center;verticalAlign=middle;whiteSpace=wrap;rounded=0;fillColor=default;" vertex="1" parent="1">
          <mxGeometry x="250" y="222" width="140" height="30" as="geometry" />
        </mxCell>
        <mxCell id="U3WG0F0ZRMjqYamJ1iFd-6" value="&lt;font style=&quot;font-size: 10px;&quot;&gt;&lt;b&gt;Ingestion/Bronze Layer&lt;/b&gt;&lt;/font&gt;" style="text;html=1;align=center;verticalAlign=middle;whiteSpace=wrap;rounded=0;fillColor=default;" vertex="1" parent="1">
          <mxGeometry x="450" y="299" width="140" height="30" as="geometry" />
        </mxCell>
        <mxCell id="U3WG0F0ZRMjqYamJ1iFd-7" value="&lt;font style=&quot;font-size: 10px;&quot;&gt;&lt;b&gt;Stage/Silver Layer&amp;nbsp;&lt;/b&gt;&lt;/font&gt;" style="text;html=1;align=center;verticalAlign=middle;whiteSpace=wrap;rounded=0;fillColor=default;" vertex="1" parent="1">
          <mxGeometry x="650" y="299" width="140" height="30" as="geometry" />
        </mxCell>
        <mxCell id="U3WG0F0ZRMjqYamJ1iFd-8" value="&lt;font style=&quot;font-size: 10px;&quot;&gt;&lt;b&gt;Consumption/Gold Layer&lt;/b&gt;&lt;/font&gt;" style="text;html=1;align=center;verticalAlign=middle;whiteSpace=wrap;rounded=0;fillColor=default;" vertex="1" parent="1">
          <mxGeometry x="850" y="300" width="140" height="29" as="geometry" />
        </mxCell>
        <mxCell id="U3WG0F0ZRMjqYamJ1iFd-11" value="&lt;div style=&quot;line-height: 100%; padding-top: 0px;&quot;&gt;&lt;div&gt;&lt;font style=&quot;line-height: 100%; font-size: 10px;&quot;&gt;&lt;b style=&quot;&quot;&gt;Object type:&lt;/b&gt; Tables&lt;/font&gt;&lt;/div&gt;&lt;div&gt;&lt;b style=&quot;background-color: transparent; color: light-dark(rgb(0, 0, 0), rgb(255, 255, 255));&quot;&gt;&lt;font style=&quot;font-size: 10px;&quot;&gt;Load:&lt;/font&gt;&lt;/b&gt;&lt;/div&gt;&lt;div&gt;&lt;ul&gt;&lt;li&gt;&lt;font style=&quot;font-size: 10px;&quot;&gt;Pull data&lt;/font&gt;&lt;/li&gt;&lt;li&gt;&lt;font style=&quot;font-size: 10px;&quot;&gt;Full load (Truncate &amp;amp; Insert)&lt;/font&gt;&lt;/li&gt;&lt;li&gt;&lt;font style=&quot;font-size: 10px;&quot;&gt;File parsing&lt;/font&gt;&lt;/li&gt;&lt;li&gt;&lt;font style=&quot;line-height: 100%; font-size: 10px;&quot;&gt;Batch processing&lt;/font&gt;&lt;/li&gt;&lt;/ul&gt;&lt;/div&gt;&lt;div&gt;&lt;font style=&quot;line-height: 100%; font-size: 10px;&quot;&gt;No transformations&lt;/font&gt;&lt;/div&gt;&lt;div&gt;&lt;font style=&quot;line-height: 100%; font-size: 10px;&quot;&gt;&lt;b style=&quot;&quot;&gt;Data model:&lt;/b&gt; None (as-is)&lt;/font&gt;&lt;/div&gt;&lt;/div&gt;" style="text;html=1;align=left;verticalAlign=middle;whiteSpace=wrap;rounded=0;spacing=2;" vertex="1" parent="1">
          <mxGeometry x="450" y="479.97" width="140" height="130" as="geometry" />
        </mxCell>
        <mxCell id="U3WG0F0ZRMjqYamJ1iFd-12" value="&lt;div style=&quot;line-height: 100%;&quot;&gt;&lt;div&gt;&lt;font style=&quot;font-size: 10px; line-height: 100%;&quot;&gt;&lt;b&gt;Object type: &lt;/b&gt;Views&lt;/font&gt;&lt;/div&gt;&lt;div&gt;&lt;font style=&quot;font-size: 10px; line-height: 100%;&quot;&gt;No load&lt;/font&gt;&lt;/div&gt;&lt;div&gt;&lt;font style=&quot;font-size: 10px; line-height: 100%;&quot;&gt;&lt;b&gt;Transformations:&lt;/b&gt;&lt;/font&gt;&lt;/div&gt;&lt;div&gt;&lt;ul&gt;&lt;li&gt;&lt;font style=&quot;font-size: 10px; line-height: 100%;&quot;&gt;Data cleansing&lt;/font&gt;&lt;/li&gt;&lt;li&gt;&lt;font style=&quot;font-size: 10px; line-height: 100%;&quot;&gt;Data standrization&lt;/font&gt;&lt;/li&gt;&lt;/ul&gt;&lt;/div&gt;&lt;div&gt;&lt;font style=&quot;font-size: 10px; line-height: 100%;&quot;&gt;&lt;b&gt;Data model:&lt;/b&gt;&amp;nbsp;&lt;/font&gt;&lt;span style=&quot;font-size: 10px; background-color: transparent; color: light-dark(rgb(0, 0, 0), rgb(255, 255, 255));&quot;&gt;None (as-is)&lt;/span&gt;&lt;/div&gt;&lt;/div&gt;" style="text;html=1;align=left;verticalAlign=middle;whiteSpace=wrap;rounded=0;" vertex="1" parent="1">
          <mxGeometry x="650" y="479.97" width="140" height="100" as="geometry" />
        </mxCell>
        <mxCell id="U3WG0F0ZRMjqYamJ1iFd-13" value="&lt;div style=&quot;line-height: 100%;&quot;&gt;&lt;div&gt;&lt;font style=&quot;font-size: 10px; line-height: 100%;&quot;&gt;&lt;b&gt;Object type&lt;/b&gt;: Views&lt;/font&gt;&lt;/div&gt;&lt;div&gt;&lt;font style=&quot;font-size: 10px; line-height: 100%;&quot;&gt;No load&lt;/font&gt;&lt;/div&gt;&lt;div&gt;&lt;font style=&quot;font-size: 10px; line-height: 100%;&quot;&gt;&lt;b&gt;Transformations&lt;/b&gt;:&lt;/font&gt;&lt;/div&gt;&lt;div&gt;&lt;ul&gt;&lt;li&gt;&lt;font style=&quot;font-size: 10px; line-height: 100%;&quot;&gt;Data integrations&lt;/font&gt;&lt;/li&gt;&lt;li&gt;&lt;font style=&quot;font-size: 10px; line-height: 100%;&quot;&gt;Aggregations&lt;/font&gt;&lt;/li&gt;&lt;li&gt;&lt;font style=&quot;font-size: 10px; line-height: 100%;&quot;&gt;Business logics&lt;/font&gt;&lt;/li&gt;&lt;/ul&gt;&lt;/div&gt;&lt;div&gt;&lt;font style=&quot;font-size: 10px; line-height: 100%;&quot;&gt;&lt;b&gt;Data Model:&lt;/b&gt;&lt;/font&gt;&lt;/div&gt;&lt;div&gt;&lt;ul&gt;&lt;li&gt;&lt;span style=&quot;font-size: 10px; background-color: transparent; color: light-dark(rgb(0, 0, 0), rgb(255, 255, 255));&quot;&gt;Flat table&lt;/span&gt;&lt;/li&gt;&lt;li&gt;&lt;font style=&quot;font-size: 10px; line-height: 100%;&quot;&gt;Aggregated table&lt;/font&gt;&lt;/li&gt;&lt;/ul&gt;&lt;/div&gt;&lt;/div&gt;" style="text;html=1;align=left;verticalAlign=middle;whiteSpace=wrap;rounded=0;" vertex="1" parent="1">
          <mxGeometry x="850" y="479.97" width="140" height="160" as="geometry" />
        </mxCell>
        <mxCell id="U3WG0F0ZRMjqYamJ1iFd-15" value="" style="group" vertex="1" connectable="0" parent="1">
          <mxGeometry x="300" y="320" width="40.94999999999999" height="63.23000000000002" as="geometry" />
        </mxCell>
        <mxCell id="U3WG0F0ZRMjqYamJ1iFd-9" value="" style="image;aspect=fixed;html=1;points=[];align=center;fontSize=12;image=img/lib/azure2/general/Folder_Blank.svg;" vertex="1" parent="U3WG0F0ZRMjqYamJ1iFd-15">
          <mxGeometry width="40.95" height="33.23" as="geometry" />
        </mxCell>
        <mxCell id="U3WG0F0ZRMjqYamJ1iFd-10" value="" style="image;aspect=fixed;html=1;points=[];align=center;fontSize=12;image=img/lib/azure2/general/File.svg;" vertex="1" parent="U3WG0F0ZRMjqYamJ1iFd-15">
          <mxGeometry x="25.529999999999973" y="20" width="15.42" height="19" as="geometry" />
        </mxCell>
        <mxCell id="U3WG0F0ZRMjqYamJ1iFd-14" value="Me" style="text;html=1;align=center;verticalAlign=middle;whiteSpace=wrap;rounded=0;" vertex="1" parent="U3WG0F0ZRMjqYamJ1iFd-15">
          <mxGeometry y="33.23000000000002" width="40" height="30" as="geometry" />
        </mxCell>
        <mxCell id="U3WG0F0ZRMjqYamJ1iFd-16" value="" style="group" vertex="1" connectable="0" parent="1">
          <mxGeometry x="300" y="397.38" width="40.94999999999999" height="63.23000000000002" as="geometry" />
        </mxCell>
        <mxCell id="U3WG0F0ZRMjqYamJ1iFd-17" value="" style="image;aspect=fixed;html=1;points=[];align=center;fontSize=12;image=img/lib/azure2/general/Folder_Blank.svg;" vertex="1" parent="U3WG0F0ZRMjqYamJ1iFd-16">
          <mxGeometry width="40.95" height="33.23" as="geometry" />
        </mxCell>
        <mxCell id="U3WG0F0ZRMjqYamJ1iFd-18" value="" style="image;aspect=fixed;html=1;points=[];align=center;fontSize=12;image=img/lib/azure2/general/File.svg;" vertex="1" parent="U3WG0F0ZRMjqYamJ1iFd-16">
          <mxGeometry x="25.529999999999973" y="20" width="15.42" height="19" as="geometry" />
        </mxCell>
        <mxCell id="U3WG0F0ZRMjqYamJ1iFd-19" value="Go" style="text;html=1;align=center;verticalAlign=middle;whiteSpace=wrap;rounded=0;" vertex="1" parent="U3WG0F0ZRMjqYamJ1iFd-16">
          <mxGeometry y="33.23000000000002" width="40" height="30" as="geometry" />
        </mxCell>
        <mxCell id="U3WG0F0ZRMjqYamJ1iFd-20" value="" style="group" vertex="1" connectable="0" parent="1">
          <mxGeometry x="300" y="480" width="40.94999999999999" height="63.23000000000002" as="geometry" />
        </mxCell>
        <mxCell id="U3WG0F0ZRMjqYamJ1iFd-21" value="" style="image;aspect=fixed;html=1;points=[];align=center;fontSize=12;image=img/lib/azure2/general/Folder_Blank.svg;" vertex="1" parent="U3WG0F0ZRMjqYamJ1iFd-20">
          <mxGeometry width="40.95" height="33.23" as="geometry" />
        </mxCell>
        <mxCell id="U3WG0F0ZRMjqYamJ1iFd-22" value="" style="image;aspect=fixed;html=1;points=[];align=center;fontSize=12;image=img/lib/azure2/general/File.svg;" vertex="1" parent="U3WG0F0ZRMjqYamJ1iFd-20">
          <mxGeometry x="25.529999999999973" y="20" width="15.42" height="19" as="geometry" />
        </mxCell>
        <mxCell id="U3WG0F0ZRMjqYamJ1iFd-23" value="..." style="text;html=1;align=center;verticalAlign=middle;whiteSpace=wrap;rounded=0;" vertex="1" parent="U3WG0F0ZRMjqYamJ1iFd-20">
          <mxGeometry y="33.23000000000002" width="40" height="30" as="geometry" />
        </mxCell>
        <mxCell id="U3WG0F0ZRMjqYamJ1iFd-26" value="" style="endArrow=none;html=1;rounded=0;" edge="1" parent="1">
          <mxGeometry width="50" height="50" relative="1" as="geometry">
            <mxPoint x="650" y="460" as="sourcePoint" />
            <mxPoint x="790" y="460" as="targetPoint" />
          </mxGeometry>
        </mxCell>
        <mxCell id="U3WG0F0ZRMjqYamJ1iFd-27" value="" style="endArrow=none;html=1;rounded=0;" edge="1" parent="1">
          <mxGeometry width="50" height="50" relative="1" as="geometry">
            <mxPoint x="850" y="460" as="sourcePoint" />
            <mxPoint x="990" y="460" as="targetPoint" />
          </mxGeometry>
        </mxCell>
        <mxCell id="U3WG0F0ZRMjqYamJ1iFd-28" value="" style="endArrow=none;html=1;rounded=0;" edge="1" parent="1">
          <mxGeometry width="50" height="50" relative="1" as="geometry">
            <mxPoint x="450" y="460" as="sourcePoint" />
            <mxPoint x="590" y="460" as="targetPoint" />
          </mxGeometry>
        </mxCell>
        <mxCell id="U3WG0F0ZRMjqYamJ1iFd-29" value="" style="endArrow=none;html=1;rounded=0;" edge="1" parent="1">
          <mxGeometry width="50" height="50" relative="1" as="geometry">
            <mxPoint x="250" y="583.23" as="sourcePoint" />
            <mxPoint x="390" y="583.23" as="targetPoint" />
          </mxGeometry>
        </mxCell>
        <mxCell id="U3WG0F0ZRMjqYamJ1iFd-30" value="&lt;div style=&quot;line-height: 100%; padding-top: 0px;&quot;&gt;&lt;div&gt;&lt;font style=&quot;font-size: 10px; line-height: 100%;&quot;&gt;&lt;b&gt;Object type:&lt;/b&gt; CSV files&lt;/font&gt;&lt;/div&gt;&lt;div&gt;&lt;font style=&quot;font-size: 10px; line-height: 100%;&quot;&gt;&lt;b&gt;Interface: &lt;/b&gt;Files in folders&lt;/font&gt;&lt;/div&gt;&lt;/div&gt;" style="text;html=1;align=left;verticalAlign=middle;whiteSpace=wrap;rounded=0;spacing=2;" vertex="1" parent="1">
          <mxGeometry x="250" y="599.97" width="140" height="40" as="geometry" />
        </mxCell>
        <mxCell id="U3WG0F0ZRMjqYamJ1iFd-31" value="" style="sketch=0;verticalLabelPosition=bottom;sketch=0;aspect=fixed;html=1;verticalAlign=top;strokeColor=#6D1F00;fillColor=#a0522d;align=center;outlineConnect=0;pointerEvents=1;shape=mxgraph.citrix2.site_database;fontColor=#ffffff;" vertex="1" parent="1">
          <mxGeometry x="497.3" y="360" width="45.395" height="50" as="geometry" />
        </mxCell>
        <mxCell id="U3WG0F0ZRMjqYamJ1iFd-33" value="" style="sketch=0;verticalLabelPosition=bottom;sketch=0;aspect=fixed;html=1;verticalAlign=top;strokeColor=#d79b00;fillColor=#ffcd28;align=center;outlineConnect=0;pointerEvents=1;shape=mxgraph.citrix2.site_database;gradientColor=#ffa500;" vertex="1" parent="1">
          <mxGeometry x="897.3" y="360" width="45.395" height="50" as="geometry" />
        </mxCell>
        <mxCell id="U3WG0F0ZRMjqYamJ1iFd-34" value="&lt;font style=&quot;font-size: 10px;&quot;&gt;Raw Data&lt;/font&gt;" style="text;html=1;align=center;verticalAlign=middle;whiteSpace=wrap;rounded=0;" vertex="1" parent="1">
          <mxGeometry x="490" y="414" width="60" height="30" as="geometry" />
        </mxCell>
        <mxCell id="U3WG0F0ZRMjqYamJ1iFd-35" value="&lt;font style=&quot;font-size: 10px;&quot;&gt;Cleaned, Standardized Data&lt;/font&gt;" style="text;html=1;align=center;verticalAlign=middle;whiteSpace=wrap;rounded=0;" vertex="1" parent="1">
          <mxGeometry x="676.35" y="410" width="87.3" height="30" as="geometry" />
        </mxCell>
        <mxCell id="U3WG0F0ZRMjqYamJ1iFd-36" value="" style="sketch=0;verticalLabelPosition=bottom;sketch=0;aspect=fixed;html=1;verticalAlign=top;strokeColor=#666666;fillColor=#f5f5f5;align=center;outlineConnect=0;pointerEvents=1;shape=mxgraph.citrix2.site_database;gradientColor=#b3b3b3;" vertex="1" parent="1">
          <mxGeometry x="697.3" y="360" width="45.395" height="50" as="geometry" />
        </mxCell>
        <mxCell id="U3WG0F0ZRMjqYamJ1iFd-37" value="&lt;span style=&quot;font-size: 10px;&quot;&gt;Consumption Ready Data&lt;/span&gt;" style="text;html=1;align=center;verticalAlign=middle;whiteSpace=wrap;rounded=0;" vertex="1" parent="1">
          <mxGeometry x="876.3499999999999" y="410" width="87.3" height="30" as="geometry" />
        </mxCell>
        <mxCell id="U3WG0F0ZRMjqYamJ1iFd-38" value="" style="rounded=0;whiteSpace=wrap;html=1;fillColor=none;dashed=1;" vertex="1" parent="1">
          <mxGeometry x="1040" y="319" width="160" height="360" as="geometry" />
        </mxCell>
        <mxCell id="U3WG0F0ZRMjqYamJ1iFd-39" value="&lt;font style=&quot;font-size: 10px;&quot;&gt;&lt;b&gt;Consume&lt;/b&gt;&lt;/font&gt;" style="text;html=1;align=center;verticalAlign=middle;whiteSpace=wrap;rounded=0;fillColor=default;" vertex="1" parent="1">
          <mxGeometry x="1050" y="300" width="140" height="29" as="geometry" />
        </mxCell>
        <mxCell id="U3WG0F0ZRMjqYamJ1iFd-56" value="" style="verticalLabelPosition=bottom;sketch=0;aspect=fixed;html=1;verticalAlign=top;strokeColor=none;align=center;outlineConnect=0;shape=mxgraph.citrix.reporting;" vertex="1" parent="1">
          <mxGeometry x="1093.26" y="360" width="53.48" height="60" as="geometry" />
        </mxCell>
        <mxCell id="U3WG0F0ZRMjqYamJ1iFd-58" value="" style="editableCssRules=.*;html=1;shape=image;verticalLabelPosition=bottom;labelBackgroundColor=#ffffff;verticalAlign=top;aspect=fixed;imageAspect=0;image=data:image/svg+xml,PHN2ZyB4bWxucz0iaHR0cDovL3d3dy53My5vcmcvMjAwMC9zdmciIHhtbG5zOnY9Imh0dHBzOi8vdmVjdGEuaW8vbmFubyIgd2lkdGg9IjIwIiBoZWlnaHQ9IjE4Ljc1OTk5ODMyMTUzMzIwMyIgdmlld0JveD0iMCAwIDIwIDE4Ljc1OTk5ODMyMTUzMzIwMyI+JiN4YTsJPHN0eWxlIHR5cGU9InRleHQvY3NzIj4mI3hhOwkuc3Qwe2ZpbGw6IzQyODVmNDt9JiN4YTsJLnN0MXtmaWxsOiM2NjlkZjY7fSYjeGE7CS5zdDJ7ZmlsbDojYWVjYmZhO30mI3hhOwk8L3N0eWxlPiYjeGE7CTxwYXRoIGNsYXNzPSJzdDEiIGQ9Ik0xMC42MiAxNi40NUw0LjMgMTAuMzFsLTEuMzYuNzcgNi41OSA2LjUyem01LjA3LTcuNjNsMS43OC0uMzgtNi45LTdMOS40OCAyLjZ6IiBmaWxsLXJ1bGU9ImV2ZW5vZGQiLz4mI3hhOwk8cGF0aCBjbGFzcz0ic3QwIiBkPSJNOS4zOCAyLjUxaDEuMjV2NUg5LjM4em0wIDkuMzdoMS4yNXY1SDkuMzh6Ii8+JiN4YTsJPGcgY2xhc3M9InN0MiI+JiN4YTsJCTxjaXJjbGUgY3g9IjEwIiBjeT0iMS44OCIgcj0iMS44OCIvPiYjeGE7CQk8Y2lyY2xlIGN4PSIxMCIgY3k9IjE2Ljg4IiByPSIxLjg4Ii8+JiN4YTsJPC9nPiYjeGE7CTxwYXRoIGNsYXNzPSJzdDEiIGQ9Ik0xOS4zNyAxMC42M0g0LjNMLjY2IDguNzZoMTUuMDd6IiBmaWxsLXJ1bGU9ImV2ZW5vZGQiLz4mI3hhOwk8ZyBjbGFzcz0ic3QyIj4mI3hhOwkJPGNpcmNsZSBjeD0iMi41IiBjeT0iOS42OSIgcj0iMi41Ii8+JiN4YTsJCTxjaXJjbGUgY3g9IjE3LjUiIGN5PSI5LjY5IiByPSIyLjUiLz4mI3hhOwk8L2c+JiN4YTs8L3N2Zz4=;" vertex="1" parent="1">
          <mxGeometry x="1088.4299999999998" y="550" width="63.13" height="59.97" as="geometry" />
        </mxCell>
        <mxCell id="U3WG0F0ZRMjqYamJ1iFd-59" value="" style="sketch=0;pointerEvents=1;shadow=0;dashed=0;html=1;strokeColor=none;labelPosition=center;verticalLabelPosition=bottom;verticalAlign=top;align=center;fillColor=#505050;shape=mxgraph.mscae.oms.log_search" vertex="1" parent="1">
          <mxGeometry x="1095" y="455" width="50" height="50" as="geometry" />
        </mxCell>
        <mxCell id="U3WG0F0ZRMjqYamJ1iFd-60" value="PowerBI &amp;amp; Metabase" style="text;html=1;align=center;verticalAlign=middle;whiteSpace=wrap;rounded=0;" vertex="1" parent="1">
          <mxGeometry x="1040" y="414" width="160" height="30" as="geometry" />
        </mxCell>
        <mxCell id="U3WG0F0ZRMjqYamJ1iFd-65" value="" style="rounded=0;whiteSpace=wrap;html=1;fillColor=none;dashed=1;movable=1;resizable=1;rotatable=1;deletable=1;editable=1;locked=0;connectable=1;" vertex="1" parent="1">
          <mxGeometry x="420" y="240" width="800" height="480" as="geometry" />
        </mxCell>
        <mxCell id="U3WG0F0ZRMjqYamJ1iFd-61" value="Ad-Hoc SQL Queries" style="text;html=1;align=center;verticalAlign=middle;whiteSpace=wrap;rounded=0;" vertex="1" parent="1">
          <mxGeometry x="1055" y="513.23" width="130" height="30" as="geometry" />
        </mxCell>
        <mxCell id="U3WG0F0ZRMjqYamJ1iFd-62" value="Machine Learning (WIP)" style="text;html=1;align=center;verticalAlign=middle;whiteSpace=wrap;rounded=0;" vertex="1" parent="1">
          <mxGeometry x="1049.99" y="609.97" width="140" height="30" as="geometry" />
        </mxCell>
        <mxCell id="U3WG0F0ZRMjqYamJ1iFd-64" value="" style="sketch=0;outlineConnect=0;fillColor=#1ba1e2;strokeColor=#006EAF;dashed=0;verticalLabelPosition=bottom;verticalAlign=top;align=center;html=1;fontSize=12;fontStyle=0;aspect=fixed;pointerEvents=1;shape=mxgraph.aws4.rds_postgresql_instance;fontColor=#ffffff;" vertex="1" parent="1">
          <mxGeometry x="440" y="252" width="38" height="38" as="geometry" />
        </mxCell>
        <mxCell id="U3WG0F0ZRMjqYamJ1iFd-66" value="" style="shape=flexArrow;endArrow=classic;html=1;rounded=0;fillColor=#dae8fc;strokeColor=#6c8ebf;" edge="1" parent="1">
          <mxGeometry width="50" height="50" relative="1" as="geometry">
            <mxPoint x="600" y="437.38" as="sourcePoint" />
            <mxPoint x="640" y="437.38" as="targetPoint" />
          </mxGeometry>
        </mxCell>
        <mxCell id="U3WG0F0ZRMjqYamJ1iFd-67" value="" style="shape=flexArrow;endArrow=classic;html=1;rounded=0;fillColor=#dae8fc;strokeColor=#6c8ebf;" edge="1" parent="1">
          <mxGeometry width="50" height="50" relative="1" as="geometry">
            <mxPoint x="800" y="440" as="sourcePoint" />
            <mxPoint x="840" y="440" as="targetPoint" />
          </mxGeometry>
        </mxCell>
        <mxCell id="U3WG0F0ZRMjqYamJ1iFd-68" value="" style="shape=flexArrow;endArrow=classic;html=1;rounded=0;fillColor=#dae8fc;strokeColor=#6c8ebf;" edge="1" parent="1">
          <mxGeometry width="50" height="50" relative="1" as="geometry">
            <mxPoint x="1000" y="443.17" as="sourcePoint" />
            <mxPoint x="1040" y="443.17" as="targetPoint" />
          </mxGeometry>
        </mxCell>
        <mxCell id="U3WG0F0ZRMjqYamJ1iFd-69" value="&lt;b&gt;&lt;font style=&quot;font-size: 14px;&quot;&gt;High Level Architecture&lt;/font&gt;&lt;/b&gt;" style="text;html=1;align=center;verticalAlign=middle;whiteSpace=wrap;rounded=0;fillColor=default;" vertex="1" parent="1">
          <mxGeometry x="735" y="220" width="170" height="30" as="geometry" />
        </mxCell>
      </root>
    </mxGraphModel>
  </diagram>
</mxfile>
